# Blender 3.3.1
# www.blender.org
mtllib Box.mtl
o Cube
v 1.000000 1.000000 -1.000000
v 1.000000 -1.000000 -1.000000
v 1.000000 1.000000 1.000000
v 1.000000 -1.000000 1.000000
v -1.000000 1.000000 -1.000000
v -1.000000 -1.000000 -1.000000
v -1.000000 1.000000 1.000000
v -1.000000 -1.000000 1.000000
v 0.843640 1.000000 0.843640
v -0.843640 1.000000 0.843640
v 0.843640 1.000000 -0.843640
v -0.843640 1.000000 -0.843640
v 0.843640 -0.850205 0.843640
v -0.843640 -0.850205 0.843640
v 0.843640 -0.850205 -0.843640
v -0.843640 -0.850205 -0.843640
vn -0.0000 1.0000 -0.0000
vn -0.0000 -0.0000 1.0000
vn -1.0000 -0.0000 -0.0000
vn -0.0000 -1.0000 -0.0000
vn 1.0000 -0.0000 -0.0000
vn -0.0000 -0.0000 -1.0000
vt 0.625000 0.500000
vt 0.375000 0.500000
vt 0.625000 0.750000
vt 0.375000 0.750000
vt 0.625000 0.250000
vt 0.125000 0.500000
vt 0.375000 0.250000
vt 0.625000 1.000000
vt 0.625000 0.000000
vt 0.375000 1.000000
vt 0.375000 0.000000
vt 0.125000 0.750000
vt 0.625000 0.750000
vt 0.625000 0.000000
vt 0.625000 1.000000
vt 0.625000 0.500000
vt 0.625000 0.250000
vt 0.625000 0.750000
vt 0.875000 0.750000
vt 0.625000 0.000000
vt 0.625000 1.000000
vt 0.625000 0.500000
vt 0.875000 0.500000
vt 0.625000 0.250000
s 0
usemtl Material
f 7/8/1 3/3/1 9/13/1 10/15/1
f 4/4/2 3/3/2 7/8/2 8/10/2
f 8/11/3 7/9/3 5/5/3 6/7/3
f 6/6/4 2/2/4 4/4/4 8/12/4
f 2/2/5 1/1/5 3/3/5 4/4/5
f 6/7/6 5/5/6 1/1/6 2/2/6
f 11/16/2 12/17/2 16/24/2 15/22/2
f 5/5/1 7/9/1 10/14/1 12/17/1
f 3/3/1 1/1/1 11/16/1 9/13/1
f 1/1/1 5/5/1 12/17/1 11/16/1
f 15/22/1 16/23/1 14/19/1 13/18/1
f 9/13/3 11/16/3 15/22/3 13/18/3
f 12/17/5 10/14/5 14/20/5 16/24/5
f 10/15/6 9/13/6 13/18/6 14/21/6
